<svg xmlns="http://www.w3.org/2000/svg" width="1080" height="1080" viewBox="0 0 1080 1080">
  <defs>
    <linearGradient id="bg" x1="0" y1="0" x2="0" y2="1"><stop offset="0" stop-color="#fff5e8"/><stop offset="1" stop-color="#ffd9bd"/></linearGradient>
    <filter id="shadow" x="-20%" y="-20%" width="140%" height="140%"><feDropShadow dx="0" dy="16" stdDeviation="20" flood-color="#8a4a24" flood-opacity="0.22"/></filter>
  </defs>
  <rect width="1080" height="1080" fill="url(#bg)"/>
  <circle cx="40" cy="30" r="230" fill="#f39b3d"/><circle cx="1040" cy="40" r="190" fill="#d93f26"/><circle cx="40" cy="1040" r="210" fill="#2f7d55"/><circle cx="1020" cy="1040" r="220" fill="#f1bf55"/>
  <rect x="70" y="90" width="940" height="900" rx="55" fill="#fffdf8" stroke="#f0d8b5" stroke-width="6" filter="url(#shadow)"/>
  <rect x="120" y="130" width="840" height="115" rx="35" fill="#c93424"/>
  <text x="540" y="203" text-anchor="middle" font-family="Georgia, serif" font-size="48" font-weight="700" fill="#fff7e9" letter-spacing="3">NEW SAIGON PHO</text>
  <text x="540" y="365" text-anchor="middle" font-family="Arial, sans-serif" font-size="88" font-weight="900" fill="#c93424">HAPPY HOUR</text>
  <text x="540" y="455" text-anchor="middle" font-family="Arial, sans-serif" font-size="88" font-weight="900" fill="#c93424">DISCOUNT</text>
  <ellipse cx="540" cy="758" rx="290" ry="45" fill="#ead6bd" opacity="0.9"/>
  <ellipse cx="540" cy="620" rx="285" ry="150" fill="#f7f0df" stroke="#2f7d55" stroke-width="10"/>
  <ellipse cx="540" cy="625" rx="220" ry="90" fill="#9b5126"/>
  <ellipse cx="540" cy="610" rx="210" ry="70" fill="#c46f2c"/>
  <path d="M365 590 C470 550 610 650 725 595" fill="none" stroke="#f8d875" stroke-width="8" stroke-linecap="round"/>
  <path d="M365 615 C470 575 610 675 725 620" fill="none" stroke="#f8d875" stroke-width="8" stroke-linecap="round"/>
  <path d="M375 640 C480 600 600 695 715 645" fill="none" stroke="#f8d875" stroke-width="8" stroke-linecap="round"/>
  <g fill="#2f7d55"><ellipse cx="430" cy="610" rx="24" ry="11"/><ellipse cx="502" cy="565" rx="24" ry="11"/><ellipse cx="595" cy="630" rx="24" ry="11"/><ellipse cx="655" cy="575" rx="24" ry="11"/><ellipse cx="565" cy="680" rx="24" ry="11"/><ellipse cx="710" cy="640" rx="24" ry="11"/></g>
  <g fill="#e3b574"><ellipse cx="455" cy="655" rx="35" ry="14"/><ellipse cx="625" cy="605" rx="35" ry="14"/><ellipse cx="700" cy="680" rx="35" ry="14"/></g>
  <rect x="125" y="590" width="220" height="82" rx="41" fill="#f7faf1" stroke="#2f7d55" stroke-width="5"/><circle cx="180" cy="631" r="26" fill="#f2997b"/><rect x="220" y="612" width="95" height="38" rx="10" fill="#5aa86f"/>
  <rect x="735" y="590" width="220" height="82" rx="41" fill="#f7faf1" stroke="#2f7d55" stroke-width="5"/><circle cx="790" cy="631" r="26" fill="#f2997b"/><rect x="830" y="612" width="95" height="38" rx="10" fill="#5aa86f"/>
  <text x="540" y="835" text-anchor="middle" font-family="Arial, sans-serif" font-size="42" font-weight="700" fill="#2f362f">Pho • Summer Rolls • Fresh Drinks</text>
  <text x="540" y="887" text-anchor="middle" font-family="Arial, sans-serif" font-size="34" fill="#4d4d4d">Dine-in • Phone Orders • DoorDash</text>
  <text x="540" y="936" text-anchor="middle" font-family="Arial, sans-serif" font-size="35" font-weight="700" fill="#c93424">Ends May 31</text>
  <text x="540" y="970" text-anchor="middle" font-family="Arial, sans-serif" font-size="24" fill="#4d4d4d">202 South Plank Rd, Newburgh, NY 12550  |  845-762-5511</text>
</svg>
